# Blender 4.0.2
# www.blender.org
mtllib myTankTurret.mtl
o Cylinder.010
v 0.000000 0.969984 -1.000000
v 0.000000 1.369984 -0.789708
v 0.587785 0.969984 -0.809017
v 0.464178 1.369984 -0.638887
v 0.951057 0.969984 -0.309017
v 0.751057 1.369984 -0.244033
v 0.951057 0.969984 0.309017
v 0.751057 1.369984 0.244033
v 0.587785 0.969984 0.809017
v 0.464178 1.369984 0.638887
v 0.000000 0.969984 1.000000
v 0.000000 1.369984 0.789708
v -0.587785 0.969984 0.809017
v -0.464178 1.369984 0.638887
v -0.951057 0.969984 0.309017
v -0.751057 1.369984 0.244033
v -0.951057 0.969984 -0.309017
v -0.751057 1.369984 -0.244033
v -0.587785 0.969984 -0.809017
v -0.464178 1.369984 -0.638887
v 0.587785 1.369984 -0.809017
v 0.000000 1.369984 -1.000000
v 0.951057 1.369984 -0.309017
v 0.951057 1.369984 0.309017
v 0.587785 1.369984 0.809017
v 0.000000 1.369984 1.000000
v -0.587785 1.369984 0.809017
v -0.951057 1.369984 0.309017
v -0.951057 1.369984 -0.309017
v -0.587785 1.369984 -0.809017
v 0.951057 1.369984 -0.200000
v 0.951057 1.369984 0.200000
v -0.153856 1.676231 0.211764
v 0.464178 1.476231 -0.638887
v 0.155161 1.649436 -0.213561
v 0.381378 1.576231 -0.524921
v 0.000000 1.476231 -0.789708
v 0.000000 1.676231 0.261755
v 0.000000 1.576231 -0.648838
v 0.000000 1.649436 -0.263976
v -0.248943 1.676231 0.080887
v 0.751057 1.476231 -0.244033
v 0.251057 1.649436 -0.081573
v 0.617082 1.576231 -0.200502
v -0.248943 1.676231 -0.080887
v 0.751057 1.476231 0.244033
v 0.251057 1.649436 0.081573
v 0.617082 1.576231 0.200502
v -0.153856 1.676231 -0.211764
v 0.464178 1.476231 0.638887
v 0.155161 1.649436 0.213561
v 0.381378 1.576231 0.524921
v 0.000000 1.676231 -0.261755
v 0.000000 1.476231 0.789708
v 0.000000 1.649436 0.263976
v 0.000000 1.576231 0.648838
v 0.153856 1.676231 -0.211764
v -0.464178 1.476231 0.638887
v -0.155161 1.649436 0.213561
v -0.381378 1.576231 0.524921
v 0.248943 1.676231 -0.080887
v -0.751057 1.476231 0.244033
v -0.251057 1.649436 0.081573
v -0.617082 1.576231 0.200502
v 0.248943 1.676231 0.080887
v -0.751057 1.476231 -0.244033
v -0.251057 1.649436 -0.081573
v -0.617082 1.576231 -0.200502
v 0.153856 1.676231 0.211764
v -0.464178 1.476231 -0.638887
v -0.155161 1.649436 -0.213561
v -0.381378 1.576231 -0.524921
v 0.951057 0.969984 -0.200000
v 0.951057 0.969984 0.200000
v 0.559638 0.969984 -0.200000
v 0.559638 0.969984 0.200000
v 0.751057 1.369984 0.200000
v 0.751057 1.369984 -0.200000
v 0.559638 1.585584 0.200000
v 0.559638 1.587720 0.181837
v 0.559638 1.585584 -0.200000
v 0.559638 1.587720 -0.181837
v 0.751057 1.476231 -0.200000
v 0.751057 1.476231 0.200000
v 0.615537 1.576540 -0.200000
v 0.617082 1.576231 -0.200000
v 0.617082 1.576231 0.200000
v 0.615537 1.576540 0.200000
vn 0.3090 -0.0000 -0.9511
vn 0.8090 -0.0000 -0.5878
vn 0.8090 -0.0000 0.5878
vn 0.3090 -0.0000 0.9511
vn -0.3090 -0.0000 0.9511
vn -0.8090 -0.0000 0.5878
vn -1.0000 -0.0000 -0.0000
vn -0.8090 -0.0000 -0.5878
vn -0.3090 -0.0000 -0.9511
vn -0.0000 1.0000 -0.0000
vn 0.1848 0.8014 -0.5689
vn 0.0606 0.9806 -0.1865
vn 0.4839 0.8014 -0.3516
vn 0.4839 0.8014 0.3516
vn 0.1848 0.8014 0.5689
vn 0.0606 0.9806 0.1865
vn -0.1848 0.8014 0.5689
vn -0.0606 0.9806 0.1865
vn -0.4839 0.8014 0.3516
vn -0.1587 0.9806 0.1153
vn -0.5982 0.8014 -0.0000
vn -0.1961 0.9806 -0.0000
vn -0.4839 0.8014 -0.3516
vn -0.1587 0.9806 -0.1153
vn -0.1848 0.8014 -0.5689
vn -0.0606 0.9806 -0.1865
vn 1.0000 -0.0000 -0.0000
vn -0.0000 -1.0000 -0.0000
vn 0.0165 0.9986 -0.0509
vn -0.0165 -0.9986 0.0509
vn 0.1587 0.9806 -0.1153
vn 0.0433 0.9986 -0.0315
vn -0.0433 -0.9986 0.0315
vn 0.5982 0.8014 -0.0000
vn 0.1961 0.9806 -0.0000
vn 0.0535 0.9986 -0.0000
vn -0.0535 -0.9986 -0.0000
vn 0.1587 0.9806 0.1153
vn 0.0433 0.9986 0.0315
vn -0.0433 -0.9986 -0.0315
vn 0.0165 0.9986 0.0509
vn -0.0165 -0.9986 -0.0509
vn -0.0165 0.9986 0.0509
vn 0.0165 -0.9986 -0.0509
vn -0.0433 0.9986 0.0315
vn 0.0433 -0.9986 -0.0315
vn -0.0535 0.9986 -0.0000
vn 0.0535 -0.9986 -0.0000
vn -0.0433 0.9986 -0.0315
vn 0.0433 -0.9986 0.0315
vn -0.0165 0.9986 -0.0509
vn 0.0165 -0.9986 0.0509
vn -0.0000 -0.0000 1.0000
vn -0.0000 -0.0000 -1.0000
vt 1.000000 0.500000
vt 1.000000 1.000000
vt 0.900000 1.000000
vt 0.900000 0.500000
vt 0.800000 1.000000
vt 0.800000 0.500000
vt 0.700000 0.500000
vt 0.700000 1.000000
vt 0.600000 1.000000
vt 0.600000 0.500000
vt 0.500000 1.000000
vt 0.500000 0.500000
vt 0.400000 1.000000
vt 0.400000 0.500000
vt 0.300000 1.000000
vt 0.300000 0.500000
vt 0.200000 1.000000
vt 0.200000 0.500000
vt 0.138597 0.096667
vt 0.250000 0.060470
vt 0.100000 1.000000
vt 0.100000 0.500000
vt -0.000000 1.000000
vt -0.000000 0.500000
vt 0.250000 0.439530
vt 0.361403 0.403333
vt 0.391068 0.444164
vt 0.250000 0.490000
vt 0.430254 0.308568
vt 0.478254 0.324164
vt 0.430254 0.191432
vt 0.361403 0.096667
vt 0.391068 0.055836
vt 0.478254 0.175836
vt 0.250000 0.010000
vt 0.108932 0.055836
vt 0.069746 0.191432
vt 0.021746 0.175836
vt 0.069746 0.308568
vt 0.021746 0.324164
vt 0.138597 0.403333
vt 0.108932 0.444164
vt 0.361403 0.403333
vt 0.250000 0.439530
vt 0.069746 0.191432
vt 0.069746 0.191432
vt 0.213075 0.199177
vt 0.250000 0.187179
vt 0.286925 0.199177
vt 0.309746 0.230587
vt 0.309746 0.269413
vt 0.286925 0.300823
vt 0.250000 0.312821
vt 0.213075 0.300823
vt 0.190254 0.269413
vt 0.190254 0.230587
vt 0.250000 0.436301
vt 0.359505 0.400721
vt 0.250000 0.313354
vt 0.287239 0.301255
vt 0.427183 0.307570
vt 0.427183 0.192430
vt 0.359505 0.099279
vt 0.250000 0.063699
vt 0.287239 0.198745
vt 0.250000 0.186646
vt 0.140495 0.099279
vt 0.212761 0.198745
vt 0.072817 0.192430
vt 0.189746 0.230422
vt 0.072817 0.307570
vt 0.189746 0.269578
vt 0.140495 0.400721
vt 0.212761 0.301255
vt 0.717639 0.500000
vt 0.717639 1.000000
vt 0.782361 1.000000
vt 0.782361 0.500000
vt 0.978254 0.175836
vt 0.891068 0.055836
vt 0.750000 0.010000
vt 0.608932 0.055836
vt 0.521746 0.175836
vt 0.521746 0.324164
vt 0.608932 0.444164
vt 0.750000 0.490000
vt 0.891068 0.444164
vt 0.978254 0.324164
vt 0.978254 0.298000
vt 0.884313 0.298000
vt 0.884313 0.202000
vt 0.978254 0.202000
vt 0.430254 0.202000
vt 0.478254 0.202000
vt 0.478254 0.298000
vt 0.430254 0.298000
vt 0.476392 0.011352
vt 0.476125 0.000000
vt 0.399175 0.000000
vt 0.399175 0.250000
vt 0.476125 0.250000
vt 0.476392 0.238648
vt 0.409234 0.306858
vt 0.426690 0.307410
vt 0.310254 0.269578
vt 0.408832 0.301608
vt 0.427183 0.307426
vt 0.427183 0.192574
vt 0.426690 0.307410
vt 0.427183 0.307426
vt 0.408832 0.301608
vt 0.310254 0.230422
vt 0.408832 0.198392
vt 0.426690 0.192590
vt 0.426690 0.192590
vt 0.409234 0.193142
vt 0.408832 0.198392
vt 0.474956 0.257180
vt 0.474994 0.256987
vt 0.399175 0.298927
vt 0.449175 0.298927
vt 0.449175 0.273927
vt 0.462456 0.273927
vt 0.399175 0.951073
vt 0.399175 1.000000
vt 0.476125 1.000000
vt 0.474994 0.993013
vt 0.474956 0.992820
vt 0.462456 0.976073
vt 0.449175 0.976073
vt 0.449175 0.951073
s 0
f 1/1/1 22/2/1 21/3/1 3/4/1
f 3/4/2 21/3/2 23/5/2 5/6/2
f 7/7/3 24/8/3 25/9/3 9/10/3
f 9/10/4 25/9/4 26/11/4 11/12/4
f 11/12/5 26/11/5 27/13/5 13/14/5
f 13/14/6 27/13/6 28/15/6 15/16/6
f 15/16/7 28/15/7 29/17/7 17/18/7
f 14/19/5 12/20/5 54/20/5 58/19/5
f 17/18/8 29/17/8 30/21/8 19/22/8
f 19/22/9 30/21/9 22/23/9 1/24/9
f 2/25/10 4/26/10 21/27/10 22/28/10
f 4/26/10 6/29/10 23/30/10 21/27/10
f 8/31/10 10/32/10 25/33/10 24/34/10
f 10/32/10 12/20/10 26/35/10 25/33/10
f 12/20/10 14/19/10 27/36/10 26/35/10
f 14/19/10 16/37/10 28/38/10 27/36/10
f 16/37/10 18/39/10 29/40/10 28/38/10
f 18/39/10 20/41/10 30/42/10 29/40/10
f 20/41/10 2/25/10 22/28/10 30/42/10
f 6/29/2 4/26/2 34/43/2 42/29/2
f 2/25/9 20/41/9 70/41/9 37/44/9
f 16/37/6 14/19/6 58/19/6 62/45/6
f 10/32/3 8/31/3 46/31/3 50/32/3
f 18/39/7 16/37/7 62/46/7 66/39/7
f 12/20/4 10/32/4 50/32/4 54/20/4
f 33/47/10 38/48/10 69/49/10 65/50/10 61/51/10 57/52/10 53/53/10 49/54/10 45/55/10 41/56/10
f 20/41/8 18/39/8 66/39/8 70/41/8
f 34/43/11 37/44/11 39/57/11 36/58/11
f 36/58/12 39/57/12 40/59/12 35/60/12
f 42/29/13 34/43/13 36/58/13 44/61/13
f 50/32/14 46/31/14 48/62/14 52/63/14
f 54/20/15 50/32/15 52/63/15 56/64/15
f 56/64/16 52/63/16 51/65/16 55/66/16
f 58/19/17 54/20/17 56/64/17 60/67/17
f 60/67/18 56/64/18 55/66/18 59/68/18
f 62/45/19 58/19/19 60/67/19 64/69/19
f 64/69/20 60/67/20 59/68/20 63/70/20
f 66/39/21 62/46/21 64/69/21 68/71/21
f 68/71/22 64/69/22 63/70/22 67/72/22
f 70/41/23 66/39/23 68/71/23 72/73/23
f 72/73/24 68/71/24 67/72/24 71/74/24
f 37/44/25 70/41/25 72/73/25 39/57/25
f 39/57/26 72/73/26 71/74/26 40/59/26
f 4/26/1 2/25/1 37/44/1 34/43/1
f 24/8/27 7/7/27 74/75/27 32/76/27
f 5/6/27 23/5/27 31/77/27 73/78/27
f 7/79/28 9/80/28 11/81/28 13/82/28 15/83/28 17/84/28 19/85/28 1/86/28 3/87/28 5/88/28 73/89/28 75/90/28 76/91/28 74/92/28
f 77/93/10 8/31/10 24/34/10 32/94/10
f 31/95/10 23/30/10 6/29/10 78/96/10
f 80/97/27 79/98/27 76/99/27 75/100/27 81/101/27 82/102/27
f 78/96/27 6/29/27 42/29/27 83/96/27
f 46/31/27 8/31/27 77/93/27 84/93/27
f 35/60/29 40/59/29 33/47/29
f 40/59/30 38/48/30 33/47/30
f 81/103/31 85/104/31 44/61/31 36/58/31 35/60/31 43/105/31 82/106/31
f 43/105/32 35/60/32 41/56/32
f 35/60/33 33/47/33 41/56/33
f 83/96/34 42/29/34 44/61/34 86/107/34
f 48/62/34 46/31/34 84/93/34 87/108/34
f 85/109/35 86/110/35 44/61/35
f 82/111/35 43/105/35 47/112/35 80/113/35
f 48/62/35 87/108/35 88/114/35
f 47/112/36 43/105/36 45/55/36
f 43/105/37 41/56/37 45/55/37
f 47/112/38 51/65/38 52/63/38 48/62/38 88/115/38 79/116/38 80/117/38
f 51/65/39 47/112/39 49/54/39
f 47/112/40 45/55/40 49/54/40
f 55/66/41 51/65/41 53/53/41
f 51/65/42 49/54/42 53/53/42
f 59/68/43 55/66/43 57/52/43
f 55/66/44 53/53/44 57/52/44
f 63/70/45 59/68/45 61/51/45
f 59/68/46 57/52/46 61/51/46
f 67/72/47 63/70/47 65/50/47
f 63/70/48 61/51/48 65/50/48
f 71/74/49 67/72/49 69/49/49
f 67/72/50 65/50/50 69/49/50
f 40/59/51 71/74/51 38/48/51
f 71/74/52 69/49/52 38/48/52
f 86/118/53 85/119/53 81/101/53 75/100/53 73/120/53 31/121/53 78/122/53 83/123/53
f 74/124/54 76/125/54 79/126/54 88/127/54 87/128/54 84/129/54 77/130/54 32/131/54
